<svg xmlns="http://www.w3.org/2000/svg" viewBox="0 0 480 320" width="480" height="320" role="img">
<defs>
<linearGradient id="bg" x1="0" y1="0" x2="1" y2="1"><stop offset="0%" stop-color="#201122"/><stop offset="100%" stop-color="#140A11"/></linearGradient>
<radialGradient id="glow" cx="50%" cy="50%" r="50%"><stop offset="0%" stop-color="#FF3D68"/><stop offset="100%" stop-color="#FF3D68" stop-opacity="0"/></radialGradient>
<linearGradient id="reel" x1="0" y1="0" x2="1" y2="1"><stop offset="0%" stop-color="#B0134A"/><stop offset="100%" stop-color="#140A11"/></linearGradient><linearGradient id="pop" x1="0" y1="0" x2="1" y2="1"><stop offset="0%" stop-color="#FFD166"/><stop offset="100%" stop-color="#FF8A3D"/></linearGradient>
</defs>
<rect width="480" height="320" rx="22" fill="url(#bg)"/>
<circle cx="374" cy="70" r="176" fill="url(#glow)" opacity=".55"/>
<circle cx="86" cy="272" r="134" fill="url(#glow)" opacity=".28"/>

<g transform="translate(240,152)">
  <g transform="rotate(-6)">
    <rect x="-104" y="-96" width="208" height="192" rx="16" fill="url(#reel)"/>
    <rect x="-104" y="-96" width="208" height="192" rx="16" fill="none" stroke="#FFD166" stroke-opacity=".4" stroke-width="2"/>
    <g fill="#140A11" opacity=".6">
      <rect x="-96" y="-80" width="26" height="22" rx="5"/><rect x="-96" y="-38" width="26" height="22" rx="5"/>
      <rect x="-96" y="4" width="26" height="22" rx="5"/><rect x="-96" y="46" width="26" height="22" rx="5"/>
      <rect x="70" y="-80" width="26" height="22" rx="5"/><rect x="70" y="-38" width="26" height="22" rx="5"/>
      <rect x="70" y="4" width="26" height="22" rx="5"/><rect x="70" y="46" width="26" height="22" rx="5"/>
    </g>
    <rect x="-56" y="-60" width="112" height="120" rx="10" fill="#140A11" opacity=".45"/>
    <path d="M-22-34l46 34-46 34z" fill="#FFD166"/>
  </g>
</g>
<g transform="translate(384,224)">
  <rect x="-30" y="-20" width="60" height="40" rx="8" fill="url(#pop)" opacity=".9"/>
  <path d="M-30-20h60l-8-14h-44z" fill="#FBF0E4" opacity=".7"/>
</g>
<path d="M78 65L80.5 71.5L87 74L80.5 76.5L78 83L75.5 76.5L69 74L75.5 71.5Z" fill="#FFD166" opacity=".75"/>

</svg>
