<svg xmlns="http://www.w3.org/2000/svg" viewBox="0 0 120 120" role="img" aria-label="ناري ستور">
  <defs>
    <linearGradient id="fBadge" x1="0" y1="0" x2="1" y2="1">
      <stop offset="0%" stop-color="#1F1F24"/>
      <stop offset="100%" stop-color="#0D0D0F"/>
    </linearGradient>
    <linearGradient id="fFlame" x1="0.5" y1="0" x2="0.5" y2="1">
      <stop offset="0%" stop-color="#FFC15E"/>
      <stop offset="45%" stop-color="#FF7A3D"/>
      <stop offset="100%" stop-color="#E1261C"/>
    </linearGradient>
    <linearGradient id="fFlameCore" x1="0.5" y1="0" x2="0.5" y2="1">
      <stop offset="0%" stop-color="#FFE7B0"/>
      <stop offset="100%" stop-color="#F0B75C"/>
    </linearGradient>
  </defs>
  <rect width="120" height="120" rx="28" fill="url(#fBadge)"/>
  <path fill="url(#fFlame)" d="M61 12c5 12-7 19-7 30 0 7 5 12 5 12s-16-4-16-22c0-5 1-8 1-8s-13 10-13 31c0 20 14 34 33 34s33-14 33-34c0-17-13-27-18-38-1 9-4 15-9 17 2-9-2-16-9-22z"/>
  <path fill="url(#fFlameCore)" d="M62 52c2 6-4 9-4 15 0 5 3 8 3 8s-9-2-9-13c0-7 4-11 4-11s3 0 6 1z"/>
</svg>
